<?xml version="1.0" encoding="UTF-8" standalone="no"?>
<!-- Created with Inkscape (http://www.inkscape.org/) -->

<svg
   xmlns:dc="http://purl.org/dc/elements/1.1/"
   xmlns:cc="http://creativecommons.org/ns#"
   xmlns:rdf="http://www.w3.org/1999/02/22-rdf-syntax-ns#"
   xmlns:svg="http://www.w3.org/2000/svg"
   xmlns="http://www.w3.org/2000/svg"
   xmlns:sodipodi="http://sodipodi.sourceforge.net/DTD/sodipodi-0.dtd"
   xmlns:inkscape="http://www.inkscape.org/namespaces/inkscape"
   version="1.1"
   id="svg815"
   width="224"
   height="176"
   viewBox="0 0 224 176"
   sodipodi:docname="book_icon.svg"
   inkscape:version="0.92.4 (5da689c313, 2019-01-14)">
  <metadata
     id="metadata821">
    <rdf:RDF>
      <cc:Work
         rdf:about="">
        <dc:format>image/svg+xml</dc:format>
        <dc:type
           rdf:resource="http://purl.org/dc/dcmitype/StillImage" />
        <dc:title></dc:title>
      </cc:Work>
    </rdf:RDF>
  </metadata>
  <defs
     id="defs819" />
  <sodipodi:namedview
     pagecolor="#ffffff"
     bordercolor="#666666"
     borderopacity="1"
     objecttolerance="10"
     gridtolerance="10"
     guidetolerance="10"
     inkscape:pageopacity="0"
     inkscape:pageshadow="2"
     inkscape:window-width="2304"
     inkscape:window-height="1202"
     id="namedview817"
     showgrid="false"
     inkscape:zoom="5.5625"
     inkscape:cx="108.85393"
     inkscape:cy="88"
     inkscape:window-x="-11"
     inkscape:window-y="-11"
     inkscape:window-maximized="1"
     inkscape:current-layer="svg815" />
  <path
     style="fill:#000000;stroke-width:0.31999999"
     d="m 194.72,171.40791 c -1.29256,-0.59306 -1.71054,-1.11858 -3.85386,-4.84548 -2.07392,-3.60621 -8.59707,-15.23987 -10.31848,-18.40243 -1.20585,-2.21535 -1.92704,-3.2 -2.3438,-3.2 -0.14133,0 -3.14689,3.21988 -6.67903,7.15529 -6.87413,7.65895 -7.89086,8.47741 -10.03203,8.07573 -0.60933,-0.11431 -1.49993,-0.51623 -1.97911,-0.89316 -1.81187,-1.42521 -1.75375,-0.3905 -1.75295,-31.20758 9.6e-4,-32.694984 0.20641,-43.267061 0.84606,-43.51252 0.36945,-0.141766 5.67344,2.887648 25.8732,14.777661 2.64,1.553959 7.248,4.263709 10.24,6.021659 2.992,1.75796 6.592,3.87373 8,4.70172 1.408,0.82798 5.65885,3.3205 9.44635,5.53892 3.78748,2.21843 7.29998,4.46524 7.80553,4.99293 1.85164,1.9327 1.31407,5.23942 -1.08939,6.70105 -0.52984,0.32222 -4.74316,1.42106 -9.36292,2.44188 -9.70673,2.14486 -9.83957,2.1855 -9.83957,3.00994 0,0.34066 2.72405,5.43666 6.05345,11.32446 8.79344,15.55056 8.76859,15.49117 7.4126,17.71495 -0.82132,1.34693 -1.72441,1.97408 -8.88937,6.17316 -6.46355,3.788 -7.7508,4.25123 -9.53668,3.43182 z m 7.06481,-10.18768 c 1.8315,-1.08887 3.41272,-2.24038 3.51381,-2.5589 0.12278,-0.38686 -2.58558,-5.50366 -8.1574,-15.41143 -4.58767,-8.15776 -8.34122,-15.06175 -8.34122,-15.34221 0,-0.28045 0.11354,-0.58009 0.25232,-0.66586 0.13877,-0.0858 4.13477,-1.03096 8.88,-2.10043 10.88279,-2.45276 10.5261,-2.35484 10.63484,-2.91952 0.0829,-0.43036 -4.64054,-3.30992 -23.88134,-14.5589 -1.5212,-0.88935 -6.39996,-3.74948 -10.84169,-6.35582 -4.81406,-2.824821 -8.2714,-4.663768 -8.56,-4.553026 -0.42656,0.163687 -0.48413,3.212196 -0.48413,25.635826 0,24.02644 0.0313,25.4498 0.56,25.44573 0.32529,-0.003 3.28857,-3.08731 7.07007,-7.36 4.02286,-4.54541 6.73391,-7.35569 7.09595,-7.35569 0.40487,0 1.10352,0.91453 2.26129,2.96 2.45867,4.34381 5.10263,9.03794 10.04835,17.84 5.50009,9.78871 5.17343,9.28 5.95912,9.28 0.36301,0 2.15853,-0.8909 3.99003,-1.97977 z M 94.2472,149.64717 c -1.758493,-0.53003 -2.7272,-2.0185 -2.7272,-4.19049 0,-0.90678 -0.1728,-1.82148 -0.384,-2.03268 -0.294269,-0.29427 -9.099226,-0.38412 -37.68,-0.3845 -34.868106,-3.2e-4 -37.36862,-0.0369 -38.411548,-0.56 -0.613552,-0.30772 -1.295429,-0.9195 -1.515283,-1.3595 -0.589847,-1.18048 -0.585037,-110.51365 0.0049,-111.68 0.773512,-1.529257 1.795217,-1.751828 8.536867,-1.8597 3.771863,-0.06035 6.392384,-0.233679 6.64,-0.439183 C 29.0217,26.883217 29.12,25.001435 29.12,19.31054 29.12,10.752156 29.292661,9.8963142 31.178205,9.1084835 32.817123,8.4237005 93.455773,8.417063 96.684013,9.1013135 101.50797,10.123789 107.09466,13.50447 109.6,16.917183 c 0.62342,0.849205 1.21244,1.310341 1.68,1.315253 0.396,0.0042 0.72,-0.131528 0.72,-0.301529 0,-0.64603 4.66556,-4.892245 6.68727,-6.086216 1.162,-0.686246 3.26473,-1.652038 4.67273,-2.1462047 L 125.92,8.8 158.15885,8.7111862 c 35.00559,-0.096436 33.53629,-0.164991 34.55167,1.6121258 0.29024,0.507993 0.45607,3.092826 0.56948,8.876688 l 0.16,8.16 6.72,0.16 c 4.60759,0.109704 6.94529,0.288721 7.43669,0.569486 1.76989,1.011245 1.69288,-0.89181 1.60464,39.652818 -0.0767,35.234206 -0.11318,37.375086 -0.63884,37.476306 -0.68513,0.13193 -5.86038,-2.94673 -6.12865,-3.64582 -0.10661,-0.27782 -0.19384,-15.316857 -0.19384,-33.420076 0,-18.52984 -0.1227,-32.990775 -0.28075,-33.088452 -0.5624,-0.347584 -8.00369,-0.411817 -8.34349,-0.07202 -0.2296,0.229606 -0.33576,9.879709 -0.33576,30.521805 0,25.9627 -0.0644,30.210758 -0.4603,30.362678 -0.50623,0.194259 -4.16454,-1.741395 -5.64408,-2.986346 L 186.24,92.103107 V 54.275555 c 0,-28.994765 -0.0897,-37.91722 -0.384,-38.211555 -0.29292,-0.29292 -7.14595,-0.384 -28.89277,-0.384 -31.33115,0 -30.32382,-0.05793 -34.11301,1.961692 -3.43226,1.829374 -5.83861,4.694942 -7.2204,8.598308 l -0.73632,2.08 -0.007,48.090042 c -0.006,39.810118 0.0668,48.118268 0.42037,48.253948 0.23492,0.0901 1.20692,-0.3663 2.16,-1.01432 2.37066,-1.61186 4.53247,-2.57252 7.49276,-3.32964 2.2727,-0.58126 3.54978,-0.64003 13.90731,-0.64003 8.44374,0 11.50451,0.0997 11.78881,0.384 0.51862,0.51862 0.51862,5.75338 0,6.272 -0.28365,0.28365 -3.23484,0.384 -11.29277,0.384 -11.61109,0 -12.93816,0.13737 -16.16323,1.67316 -0.792,0.37715 -2.376,1.57404 -3.52,2.65975 -1.144,1.08571 -2.56949,2.13896 -3.16775,2.34055 -1.3222,0.44554 -9.58442,0.49055 -10.72104,0.0584 -0.44575,-0.16948 -1.70253,-1.17834 -2.79285,-2.24192 -1.09032,-1.06358 -2.71499,-2.28854 -3.610379,-2.72212 C 95.643216,126.67444 96.577718,126.72 63.12249,126.72 c -34.215739,0 -32.633456,0.0971 -33.534006,-2.0582 C 29.184853,123.69577 29.12,117.42855 29.12,79.389165 29.12,44.413722 29.03687,35.186202 28.72,34.989632 28.269657,34.710266 20.922197,34.766707 20.458814,35.053092 19.978022,35.35024 20.062548,135.13455 20.544,135.616 c 0.294169,0.29417 8.905395,0.384 36.810278,0.384 29.818832,0 36.613063,0.0782 37.456,0.43108 1.493703,0.62532 3.352224,2.82149 3.613364,4.26983 0.120896,0.6705 0.362665,1.39909 0.537264,1.61909 0.243779,0.30716 3.084424,0.4 12.239094,0.4 9.15467,0 11.99532,-0.0928 12.23909,-0.4 0.1746,-0.22 0.41534,-0.94308 0.53497,-1.60684 0.27158,-1.50685 1.85926,-3.35137 3.54319,-4.11637 1.15803,-0.52608 2.32656,-0.58342 12.01875,-0.58976 7.93164,-0.005 10.8363,0.0933 11.12,0.37697 0.51862,0.51862 0.51862,5.75338 0,6.272 -0.28107,0.28107 -2.88,0.384 -9.696,0.384 -6.816,0 -9.41493,0.10293 -9.696,0.384 -0.2112,0.2112 -0.384,1.1259 -0.384,2.03268 0,2.28666 -0.96962,3.69496 -2.89004,4.19757 -2.0383,0.53346 -31.970254,0.52718 -33.74276,-0.007 z M 107.68,76.64 v -48 l -0.73647,-2.08 c -1.44403,-4.078359 -4.3078,-7.398118 -7.97377,-9.2434 -3.287443,-1.654748 -2.9156,-1.6366 -33.532992,-1.6366 -21.746819,0 -28.59985,0.09108 -28.892768,0.384 -0.558365,0.558366 -0.558365,102.67364 0,103.232 0.293018,0.29302 7.256179,0.384 29.388813,0.384 28.066697,0 29.086678,0.0209 31.536,0.64732 2.943707,0.75283 5.836677,2.05995 7.651187,3.45701 0.704,0.54203 1.568,0.9563 1.92,0.92059 0.63687,-0.0646 0.64,-0.2999 0.64,-48.06492 z M 79.52,70.102272 c -2.81968,-0.478746 -4.088784,-1.852464 -4.242864,-4.592611 -0.181443,-3.22673 1.201709,-4.755776 4.827018,-5.336167 C 81.014867,60.027693 82.444,60.014182 83.28,60.143478 l 1.52,0.235069 v -1.253885 c 0,-0.970505 -0.220096,-1.473977 -0.973862,-2.227747 -0.96569,-0.965689 -0.997824,-0.97272 -3.828196,-0.837398 l -2.854332,0.136467 -0.202256,-0.920867 c -0.111242,-0.50648 -0.143914,-0.979213 -0.07261,-1.050522 0.07131,-0.07131 1.162201,-0.276093 2.424211,-0.455078 2.687699,-0.381184 5.023395,-0.0019 6.332832,1.027952 1.52981,1.203344 1.734213,2.246361 1.734213,8.849238 v 6.067251 l -1.84,0.191191 c -3.603523,0.374435 -4.736493,0.411657 -6,0.197133 z M 84.732941,65.2 84.64,62.56 82.199699,62.467254 c -2.237411,-0.08504 -2.523414,-0.02282 -3.44,0.748445 -1.065376,0.896455 -1.311965,2.162903 -0.658781,3.383389 0.49658,0.927869 1.432637,1.197853 4.232023,1.220627 l 2.492941,0.02029 -0.09294,-2.64 z M 54.706989,66.016509 C 56.901091,60.168013 57.368682,58.994755 59.75111,53.36 l 2.130964,-5.04 h 1.330422 c 1.235734,0 1.365776,0.08541 1.827162,1.2 0.273206,0.66 1.25255,3 2.17632,5.2 0.923769,2.2 2.653078,6.556 3.842908,9.68 l 2.163325,5.68 h -1.529459 -1.529459 l -0.958208,-2.64 -0.958211,-2.64 -5.095757,-0.0876 -5.09576,-0.0876 -0.949527,2.6476 -0.949529,2.647603 -1.493072,0.09651 -1.493075,0.09651 z M 67.2,61.879971 c 0,-0.660662 -3.942486,-10.014403 -4.163398,-9.877869 -0.219392,0.135591 -2.10304,4.685095 -3.808247,9.197898 l -0.332515,0.88 h 4.15208 C 65.331565,62.08 67.2,61.989987 67.2,61.879971 Z M 145.28,65.6 v -6.4 h -2.18754 -2.18753 l -0.54882,1.974006 c -1.62934,5.860407 -8.08346,6.685575 -10.84067,1.385994 -0.91331,-1.755453 -1.13287,-5.830678 -0.44216,-8.206646 1.82319,-6.271568 9.51148,-6.058528 11.28283,0.31264 L 140.90493,56.64 h 2.18753 2.18754 V 52.32 48 h 1.28 1.28 v 12 12 h -1.28 -1.28 z m -9.23176,-2.265818 c 1.08827,-0.582422 1.85692,-2.761529 1.86473,-5.286432 0.012,-3.880297 -1.07665,-5.88775 -3.19297,-5.88775 -2.15832,0 -3.26056,1.943421 -3.27507,5.774467 -0.009,2.416144 0.43521,3.853363 1.60326,5.185533 0.55236,0.629978 2.02649,0.735219 3.00005,0.214182 z M 170.24,60 V 48 h 1.44 1.44 v 12 12 h -1.44 -1.44 z m -10.62841,8.24 -0.0916,-3.12 -3.24308,0.114685 -3.24308,0.114685 -0.12538,-1.314685 L 152.78309,62.72 h 7.74228 c 4.25826,0 7.97006,-0.0874 8.24846,-0.194237 0.41093,-0.157686 0.50617,0.05306 0.50617,1.12 V 64.96 h -3.52 -3.52 v 3.2 3.2 h -1.26841 -1.26842 z M 159.68,61.541894 C 156.75833,61.039501 155.2,59.668342 155.2,57.6 c 0,-2.960778 3.63086,-4.636918 8.08684,-3.733194 1.50327,0.30488 3.32304,1.863322 3.58882,3.073456 0.33838,1.540637 -0.5643,3.155687 -2.14485,3.837488 -1.48069,0.638724 -3.76786,0.984752 -5.05081,0.764144 z m 3.7688,-2.840038 C 165.15455,57.507101 163.76629,56 160.96,56 c -1.95816,0 -3.2,0.620918 -3.2,1.6 0,0.979082 1.24184,1.6 3.2,1.6 1.09095,0 2.05232,-0.192422 2.4888,-0.498144 z M 153.92,51.52 v -1.28 h 2.88 2.88 v -1.12 c 0,-1.114074 0.008,-1.12 1.44,-1.12 1.43238,0 1.44,0.0059 1.44,1.12 v 1.12 h 2.72 2.72 v 1.28 1.28 h -7.04 -7.04 z"
     id="path4529"
     inkscape:connector-curvature="0" />
</svg>
