<?xml version="1.0" encoding="UTF-8" standalone="no"?>
<!-- Created with Inkscape (http://www.inkscape.org/) -->

<svg
   xmlns:dc="http://purl.org/dc/elements/1.1/"
   xmlns:cc="http://creativecommons.org/ns#"
   xmlns:rdf="http://www.w3.org/1999/02/22-rdf-syntax-ns#"
   xmlns:svg="http://www.w3.org/2000/svg"
   xmlns="http://www.w3.org/2000/svg"
   xmlns:sodipodi="http://sodipodi.sourceforge.net/DTD/sodipodi-0.dtd"
   xmlns:inkscape="http://www.inkscape.org/namespaces/inkscape"
   version="1.1"
   id="svg815"
   width="221.12"
   height="221.75999"
   viewBox="0 0 221.12 221.75999"
   sodipodi:docname="phon_icon.svg"
   inkscape:version="0.92.4 (5da689c313, 2019-01-14)">
  <metadata
     id="metadata821">
    <rdf:RDF>
      <cc:Work
         rdf:about="">
        <dc:format>image/svg+xml</dc:format>
        <dc:type
           rdf:resource="http://purl.org/dc/dcmitype/StillImage" />
        <dc:title></dc:title>
      </cc:Work>
    </rdf:RDF>
  </metadata>
  <defs
     id="defs819" />
  <sodipodi:namedview
     pagecolor="#ffffff"
     bordercolor="#666666"
     borderopacity="1"
     objecttolerance="10"
     gridtolerance="10"
     guidetolerance="10"
     inkscape:pageopacity="0"
     inkscape:pageshadow="2"
     inkscape:window-width="2304"
     inkscape:window-height="1202"
     id="namedview817"
     showgrid="false"
     inkscape:zoom="6.2433041"
     inkscape:cx="119.83435"
     inkscape:cy="107.98309"
     inkscape:window-x="-11"
     inkscape:window-y="-11"
     inkscape:window-maximized="1"
     inkscape:current-layer="svg815" />
  <path
     style="fill:#000000;stroke-width:0.31999999"
     d="m 28.32,207.05144 c -1.588189,-0.665 -3.04,-2.88757 -3.04,-4.65392 0,-1.32579 1.16516,-3.23401 2.470052,-4.04528 1.201955,-0.74728 1.284461,-0.75288 12.489948,-0.8475 l 11.28,-0.0952 v -8.11052 c 0,-8.78636 0.05921,-8.49898 -1.751139,-8.49898 -1.380522,0 -6.839914,-1.58334 -9.677424,-2.80665 -13.050171,-5.62624 -22.754646,-19.1097 -26.769234,-37.19335 -1.262048,-5.68487 -1.668769,-9.31542 -1.213728,-10.83421 0.829187,-2.76758 3.884749,-4.16494 6.539495,-2.99061 2.151753,0.95182 2.762576,2.06771 3.319583,6.06442 0.263033,1.88735 0.961727,5.31798 1.552654,7.62362 C 28.56816,160.35903 40.159773,171.28638 56,171.2818 c 15.056688,-0.004 26.87776,-9.56796 32.73272,-26.48176 0.609251,-1.76 1.292544,-4.028 1.518426,-5.04 0.225884,-1.012 0.463379,-1.84 0.527763,-1.84 0.06439,0 1.085472,0.4822 2.269078,1.07156 1.183607,0.58935 3.196013,1.4761 4.472013,1.97055 1.276,0.49445 2.32,1.09144 2.32,1.32664 0,1.01871 -2.935395,9.21909 -4.447683,12.42514 -4.807063,10.19097 -12.701043,18.45784 -21.512567,22.52878 -3.238838,1.49635 -6.982771,2.69926 -10.11975,3.25145 l -2.32,0.40838 v 8.26875 8.26875 h 10.972195 c 10.742951,0 11.001971,0.015 12.397418,0.72 3.603766,1.82057 3.907267,6.5168 0.553312,8.56173 -1.020112,0.62197 -1.648426,0.63546 -28.722925,0.61679 -15.224,-0.0105 -27.968,-0.13968 -28.32,-0.28707 z M 51.2,161.76156 c -8.271619,-1.86482 -14.814205,-7.51627 -17.628387,-15.22732 -1.502442,-4.11678 -1.628353,-6.55034 -1.497059,-28.93425 0.118345,-20.176017 0.130867,-20.515486 0.843651,-22.871236 1.291693,-4.26903 3.057385,-7.208396 6.268976,-10.436022 2.448224,-2.460448 3.360035,-3.136393 5.932819,-4.398118 3.288531,-1.612733 5.681517,-2.330397 8.854422,-2.655472 L 56,77.031616 v 4.187801 c 0,12.363721 3.853264,25.058453 10.751293,35.420573 2.776944,4.17149 5.660032,7.56722 9.605907,11.31396 l 3.714966,3.52747 -0.148633,5.69929 c -0.124538,4.77535 -0.266035,6.06242 -0.872816,7.93928 -2.580624,7.98224 -8.283901,13.68206 -16.170717,16.16089 -2.922934,0.91868 -8.685309,1.15583 -11.68,0.48068 z m 153.33183,-20.00485 c -0.41149,-0.17432 -6.17149,-4.82636 -12.8,-10.33788 -6.62851,-5.51153 -12.21548,-10.11787 -12.4155,-10.23632 -0.20001,-0.11846 -1.35201,0.59516 -2.56,1.58582 -8.69948,7.13435 -19.24219,11.91173 -30.99633,14.04583 -4.48968,0.81516 -13.85577,0.97771 -18.95291,0.32894 C 104.49226,134.30285 85.535606,120.84355 75.812259,100.93655 58.898701,66.308733 77.051949,24.704038 114.4,12.498872 121.37188,10.220496 127.38139,9.2869356 135.10361,9.2826252 170.97411,9.2626021 200.32,38.107109 200.32,73.384781 c 0,4.484447 -0.33372,7.980479 -1.17366,12.295215 l -0.51392,2.64 h -11.56198 -11.56197 l -7.66249,4.999606 c -5.2851,3.44841 -8.02462,5.048176 -8.82968,5.156157 -1.62449,0.217888 -3.29143,-0.655955 -4.36754,-2.289559 -0.48882,-0.742054 -4.05676,-7.491561 -7.92876,-14.998908 -3.872,-7.50735 -7.12976,-13.653679 -7.23948,-13.658511 -0.10971,-0.0048 -2.84571,4.543936 -6.08,10.108371 -4.36267,7.505766 -6.0825,10.194252 -6.66303,10.415846 -0.45451,0.173488 -6.42333,0.258512 -14.24,0.202841 -12.44834,-0.08866 -13.54894,-0.141267 -14.677029,-0.701577 -3.689088,-1.832333 -3.689088,-6.876198 0,-8.708531 1.115149,-0.553885 2.194619,-0.614141 12.610859,-0.703955 l 11.39131,-0.09822 0.74757,-1.341779 c 0.41116,-0.737978 3.46056,-6.021779 6.77644,-11.741779 6.31003,-10.884988 7.74603,-12.810534 9.87051,-13.23543 1.30973,-0.261945 2.92633,0.500752 4.11313,1.940551 0.49945,0.605913 4.55908,8.147135 9.0214,16.758271 4.46233,8.611132 8.21609,15.656607 8.34169,15.656607 0.1256,0 2.79297,-1.692 5.92749,-3.76 l 5.69914,-3.76 8.96,-0.16 8.96,-0.16 0.0984,-3.839999 c 0.38302,-14.944809 -5.3604,-28.741685 -16.4642,-39.550392 -7.74435,-7.538535 -16.70487,-12.280102 -27.60172,-14.605784 -3.68342,-0.78614 -4.65578,-0.861646 -11.2325,-0.872232 -6.27311,-0.0101 -7.6669,0.083 -10.82681,0.723204 -16.43641,3.330024 -30.112006,13.181833 -38.154019,27.485909 -7.993801,14.218316 -8.801267,32.335682 -2.110976,47.364548 7.263523,16.316549 21.789685,27.860109 39.873125,31.686129 3.61825,0.76554 4.70421,0.8516 10.89868,0.86375 5.94087,0.0117 7.38034,-0.087 10.54541,-0.723 11.22088,-2.25462 20.53769,-7.03739 28.4462,-14.60282 1.69861,-1.62493 3.42083,-3.12936 3.82716,-3.34317 1.40939,-0.74165 2.5499,-0.083 8.4999,4.90854 3.19073,2.67676 9.83333,8.21016 14.76133,12.29644 5.22853,4.33548 9.26543,7.92503 9.69339,8.61923 1.81764,2.94841 -0.29775,6.99515 -3.81683,7.30165 -0.76811,0.0669 -1.73324,-0.021 -2.14473,-0.19529 z"
     id="path825"
     inkscape:connector-curvature="0" />
</svg>
